<svg xmlns="http://www.w3.org/2000/svg" width="780" height="440" viewBox="0 0 780 440"><defs><style>.a{fill:#c63434;}.b{fill:#ed4c42;}.c{fill:#162020;}.d{fill:#ff7f6e;}.e{fill:#fff;}.f{fill:#db3e3e;}</style></defs><rect class="a" x="0.0018" y="0.0014" width="780" height="440"/><path class="b" d="M248.5476,96.6832H531.4519a22.27,22.27,0,0,1,22.27,22.27V331.4925a0,0,0,0,1,0,0H226.2776a0,0,0,0,1,0,0V118.9531A22.27,22.27,0,0,1,248.5476,96.6832Z"/><path class="c" d="M553.7214,332.1886H226.2775a.6966.6966,0,0,1-.6959-.6959V118.9535a22.9914,22.9914,0,0,1,22.9659-22.966H531.4514a22.9914,22.9914,0,0,1,22.9659,22.966V331.4927A.6966.6966,0,0,1,553.7214,332.1886Zm-326.7479-1.3919H553.0254V118.9535a21.5982,21.5982,0,0,0-21.574-21.5741H248.5475a21.5982,21.5982,0,0,0-21.574,21.5741Z"/><path class="b" d="M201.4856,330.2389H578.5139a0,0,0,0,1,0,0v0a24.6985,24.6985,0,0,1-24.6985,24.6985H226.1841a24.6985,24.6985,0,0,1-24.6985-24.6985v0A0,0,0,0,1,201.4856,330.2389Z"/><path class="b" d="M422.2023,330.141h0a8.462,8.462,0,0,1-8.462,8.462H366.2592a8.462,8.462,0,0,1-8.462-8.462h0"/><path class="c" d="M413.74,339.2991H366.2588a9.1682,9.1682,0,0,1-9.1571-9.1581.696.696,0,0,1,1.3919,0,7.7743,7.7743,0,0,0,7.7652,7.7662H413.74a7.7752,7.7752,0,0,0,7.7662-7.7662.696.696,0,0,1,1.3919,0A9.1684,9.1684,0,0,1,413.74,339.2991Z"/><path class="c" d="M553.8149,355.633H226.184A25.4227,25.4227,0,0,1,200.79,330.2389a.6965.6965,0,0,1,.696-.6959H578.5141a.6965.6965,0,0,1,.696.6959A25.4236,25.4236,0,0,1,553.8149,355.633ZM202.1916,330.9348a24.0315,24.0315,0,0,0,23.9924,23.3063H553.8149a24.0318,24.0318,0,0,0,23.9935-23.3063Z"/><rect class="d" x="240.7617" y="112.6292" width="298.4762" height="202.5002"/><path class="c" d="M539.2383,315.8254H240.7617a.6966.6966,0,0,1-.6959-.696v-202.5a.6966.6966,0,0,1,.6959-.6959H539.2383a.6966.6966,0,0,1,.6959.6959v202.5A.6966.6966,0,0,1,539.2383,315.8254Zm-297.7806-1.3919H538.5423V113.3251H241.4577Z"/><path class="e" d="M526.7872,142.1932l-2.7457,15.9685h-15.958l-2.8879,16.7529h15.8206l-2.8578,15.9685H502.2758l-2.7193,15.8H483.6274l2.7193-15.8H469.6275l-2.72,15.8h-15.985l2.72-15.8H437.8116l2.9132-15.9685h15.7243l3.0011-16.7529H443.6946l2.7452-15.9685h15.8736l2.7284-15.8565H481.028l-2.7855,15.8565h16.7186l2.7867-15.8565h15.9285l-2.73,15.8565Zm-34.6887,15.9685H475.378l-2.8873,16.7529h16.6054Z"/><path d="M512.1926,127.5867l-2.4782,14.3944-.2519,1.4621H525.304l-2.3158,13.4685H507.0305l-.1788,1.0376-2.888,16.753-.252,1.4623h15.811l-2.41,13.4685h-15.89l-.1787,1.038-2.54,14.7624H485.111l2.4676-14.3384.2516-1.462h-19.256l-.1787,1.038-2.5411,14.7624H452.4061l2.4683-14.3383.2516-1.4621H439.31l2.4572-13.4685h15.7276l.1845-1.03,3.0011-16.7529.2633-1.47H445.178l2.3153-13.4685h15.8735l.1786-1.038,2.55-14.8185h13.4441l-2.5278,14.39-.2577,1.4663h19.2568l.1816-1.0336,2.6051-14.8229h13.3954m-41.1858,48.5779H490.142l.1844-1.03,3.0025-16.7529.2635-1.4705H474.3251l-.1789,1.0377-2.8873,16.7529-.2521,1.4623m42.6695-49.8279H497.7478l-2.7867,15.8565H478.2424l2.7856-15.8565H465.0417l-2.7282,15.8565H446.44l-2.7451,15.9685H459.45l-3.0011,16.7529H440.7249l-2.9133,15.9685h15.8309l-2.72,15.8h15.985l2.72-15.8h16.7193l-2.7193,15.8h15.9291l2.7193-15.8h15.8826l2.8578-15.9685H505.1956l2.8879-16.7529h15.958l2.7457-15.9685h-15.841l2.73-15.8565Zm-21.5778,31.825-3.0024,16.7529H472.4907l2.8874-16.7529Z"/><path class="e" d="M323.0426,244.5767l-1.7145,9.9706h-9.964l-1.8032,10.46h9.8783l-1.7844,9.9706h-9.917l-1.6979,9.8656h-9.946l1.6979-9.8656H287.3525l-1.6983,9.8656h-9.9809l1.6983-9.8656h-9.8847l1.819-9.9706h9.8181l1.8739-10.46H271.16l1.7141-9.9706h9.9113l1.7036-9.9007h9.9817l-1.7393,9.9007h10.439l1.74-9.9007h9.9456l-1.7047,9.9007Zm-21.6594,9.9706h-10.44l-1.8028,10.46h10.3682Z"/><path d="M313.3726,235.926l-1.4529,8.4386-.2519,1.4621h9.8915l-1.2846,7.4706h-9.9635l-.1789,1.0376-1.8032,10.46-.2521,1.4624h9.8687l-1.3371,7.4705h-9.924l-.1787,1.038-1.5192,8.8277h-7.4093l1.4464-8.4037.2516-1.462H286.2993l-.1787,1.038-1.52,8.8277h-7.4441l1.4466-8.4036.2516-1.4621h-9.87l1.3629-7.4705H280.17l.1844-1.03,1.8739-10.46.2634-1.47h-9.8481l1.2841-7.4706h9.9113l.1786-1.0381,1.5249-8.8626h7.44L291.5,244.36l-.2576,1.4663H304.22l.1816-1.0336,1.5585-8.8671h7.4125m-25.7162,30.3317h12.898l.1845-1.03,1.8746-10.46.2636-1.47H289.89l-.1788,1.0377-1.8029,10.46-.252,1.4624m27.2-31.5817h-9.9456l-1.74,9.9007H292.7316l1.7392-9.9007h-9.9817l-1.7035,9.9007h-9.9113l-1.714,9.9706h9.8376l-1.8739,10.46h-9.8181l-1.819,9.9705h9.8847l-1.6983,9.8657h9.9809l1.6983-9.8657h10.4394l-1.698,9.8657h9.946l1.6979-9.8657h9.917l1.7844-9.9705h-9.8783l1.8032-10.46h9.964l1.7145-9.9706h-9.8911l1.7047-9.9007Zm-13.473,19.8713-1.8747,10.46H289.14l1.8028-10.46Z"/><circle class="f" cx="390" cy="220.9723" r="43.7566"/><path d="M390,178.4658a42.5066,42.5066,0,1,1-42.5066,42.5065A42.5547,42.5547,0,0,1,390,178.4658m0-1.25a43.7566,43.7566,0,1,0,43.7566,43.7565A43.7565,43.7565,0,0,0,390,177.2158Z"/><path class="f" d="M389.9993,265.6278a44.6553,44.6553,0,1,1,44.656-44.6553A44.7055,44.7055,0,0,1,389.9993,265.6278Z"/><path d="M389.9993,177.5672a43.4053,43.4053,0,1,1-43.4046,43.4053,43.4548,43.4548,0,0,1,43.4046-43.4053m0-1.25a44.6553,44.6553,0,1,0,44.656,44.6553,44.7055,44.7055,0,0,0-44.656-44.6553Z"/><polygon class="e" points="373.329 245.973 415.286 221.749 373.329 197.523 373.329 245.973"/><path class="e" d="M373.3293,246.8717a.8975.8975,0,0,1-.8984-.8984v-48.45a.8978.8978,0,0,1,1.3476-.7777l41.9565,24.2259a.8984.8984,0,0,1,0,1.5561l-41.9565,24.2245A.9019.9019,0,0,1,373.3293,246.8717Z"/><path d="M373.6809,198.1322l40.9017,23.6169-40.9017,23.6156V198.1322m-.3516-1.5085a.8994.8994,0,0,0-.8984.8992v48.45a.899.899,0,0,0,1.3477.7784l41.9564-24.2245a.8984.8984,0,0,0,0-1.5561l-41.9564-24.2259a.89.89,0,0,0-.4493-.1215Z"/><path class="e" d="M716.1475,76.45l-4.0685,23.6611H688.4335l-4.2791,24.8234h23.442l-4.2345,23.6611H679.828l-4.0293,23.4121H652.1961l4.0292-23.4121H631.4519l-4.03,23.4121H603.7361l4.03-23.4121H584.3091l4.3166-23.6611h23.2992l4.4469-24.8234H593.0262L597.0939,76.45h23.5205l4.0426-23.4951h23.6874L644.217,76.45H668.99l4.1292-23.4951h23.6017L692.6752,76.45Zm-51.4,23.6611H639.9727l-4.2783,24.8234h24.6048Z"/><path d="M695.2368,54.2052l-3.7936,22.033L691.1915,77.7h23.4727l-3.6387,21.1611h-23.645l-.1788,1.0376-4.2791,24.8235-.2521,1.4623h23.4323l-3.7871,21.1611H678.7748l-.1786,1.038-3.8507,22.3741H653.68l3.7777-21.95.2516-1.462h-27.31l-.1787,1.038-3.8515,22.3741H605.22l3.7786-21.95.2516-1.4621H585.8077l3.8606-21.1611h23.3026l.1845-1.03,4.4469-24.8234.2633-1.47H594.51L598.1473,77.7h23.52l.1786-1.038,3.864-22.4571h21.1453l-3.87,22.0288L642.7283,77.7h27.3108l.1817-1.0336,3.9474-22.4615h21.0686m-61.0262,71.98h27.1345l.1844-1.0295,4.4488-24.8234.2635-1.4705H638.92l-.1789,1.0377-4.2782,24.8234-.252,1.4623m62.51-73.23H673.1188L668.99,76.45H644.217l4.1274-23.4951H624.657L620.6144,76.45H597.0939l-4.0677,23.6611h23.3456l-4.4469,24.8234H588.6257l-4.3166,23.6611h23.4571l-4.03,23.4121h23.6857l4.03-23.4121h24.7734L652.196,172.008h23.6027l4.0293-23.4121h23.5338l4.2345-23.6611H684.1544l4.2791-24.8234H712.079L716.1475,76.45H692.6752l4.0453-23.4951Zm-31.9726,47.1562-4.4487,24.8234H635.6945l4.2782-24.8234Z"/></svg>